<svg width="56" height="24" viewBox="0 0 56 24" fill="none" xmlns="http://www.w3.org/2000/svg">
<path d="M51.3095 23.4037C51.1006 23.4037 50.8916 23.324 50.7321 23.1641L44.0115 16.4439L1.13268 6.52245C0.693342 6.42048 0.419331 5.98198 0.521298 5.54222C0.622846 5.10288 1.06261 4.82929 1.50111 4.93084L44.6078 14.9048C44.7567 14.9396 44.8931 15.0151 45.0014 15.1234L51.8873 22.0093C52.2062 22.3283 52.2062 22.8452 51.8873 23.1641C51.7279 23.324 51.5185 23.4037 51.3095 23.4037Z" fill="#025162"/>
<path d="M4.68968 23.4038C4.48071 23.4038 4.27174 23.3241 4.11186 23.1642C3.79295 22.8453 3.79295 22.3283 4.11186 22.0094L10.9982 15.123C11.1065 15.0147 11.2429 14.9392 11.3918 14.9044L54.4985 4.93045C54.9374 4.8289 55.3768 5.10291 55.4783 5.54225C55.5803 5.98159 55.3063 6.42052 54.8665 6.52206L18.5493 14.9258L11.9881 16.4435L5.26708 23.1642C5.10762 23.3236 4.89865 23.4038 4.68968 23.4038Z" fill="#025162"/>
<path d="M24.9205 8.74861C24.9205 14.364 20.7927 19.0154 15.4061 19.8366C10.0194 19.0167 5.8916 14.364 5.8916 8.74861C5.8916 3.1341 10.016 1.18161 15.4006 0.86438H15.4103C20.7948 1.18161 24.9205 3.13452 24.9205 8.74861Z" fill="#EADFD8"/>
<path d="M53.5145 8.74873C53.5145 14.3272 49.4426 18.9547 44.1071 19.8196C38.7716 18.9547 34.6992 14.3272 34.6992 8.74873C34.6992 3.17031 38.7716 1.20649 44.1071 0.871216C49.4426 1.20649 53.5145 3.17031 53.5145 8.74873Z" fill="#EADFD8"/>
<path d="M24.8104 10.3244C24.6417 11.5279 24.2812 12.6713 23.7605 13.7204L18.5505 14.926L11.9885 16.4441L9.34402 19.0886C8.81362 18.8641 8.30504 18.6006 7.82038 18.3022L10.9994 15.1232C11.1073 15.0153 11.2436 14.9402 11.3926 14.905L24.376 11.9013L2.65906 6.8764C2.77361 6.30781 2.9402 5.78833 3.15799 5.31458L24.8104 10.3244Z" fill="#025162"/>
<path d="M45.0025 15.124L48.1803 18.3022C47.6956 18.6014 47.1858 18.8641 46.6554 19.0873L44.0122 16.4441L32.2423 13.7212C31.7215 12.6713 31.3602 11.5291 31.1924 10.3244L52.8427 5.31458C53.0596 5.78833 53.227 6.30781 53.3403 6.8764L31.625 11.9013L44.6093 14.905C44.7583 14.9402 44.8946 15.0153 45.0025 15.124Z" fill="#025162"/>
<path d="M31.0795 9.53961C31.0053 9.53961 30.9306 9.52954 30.8555 9.50814C29.0037 8.98152 26.9933 8.98194 25.1432 9.50814C24.7089 9.63193 24.2574 9.37974 24.134 8.94585C24.0106 8.51197 24.2624 8.06045 24.6963 7.93667C26.8376 7.3278 29.1598 7.32738 31.3024 7.93667C31.7363 8.06045 31.988 8.51197 31.8647 8.94585C31.7627 9.30505 31.4354 9.53961 31.0795 9.53961Z" fill="#E75313"/>
<path d="M42.2972 20.7821C35.6618 20.7821 30.2638 15.3841 30.2638 8.74865C30.2638 2.94363 34.3123 0 42.2972 0C42.9409 0 43.5674 0.0188829 44.1587 0.0562291C50.9091 0.480464 54.3319 3.40521 54.3319 8.74865C54.3319 11.6235 53.3017 14.406 51.4315 16.5838C49.5818 18.7381 47.0272 20.1736 44.238 20.6256C43.5997 20.7296 42.9468 20.7821 42.2972 20.7821ZM42.2972 1.63358C39.0141 1.63358 36.4863 2.14761 34.7835 3.16141C32.8415 4.31789 31.8974 6.14533 31.8974 8.74865C31.8974 14.4832 36.5627 19.1485 42.2972 19.1485C42.8591 19.1485 43.4243 19.1032 43.9761 19.0134C46.3856 18.6227 48.5932 17.3819 50.1924 15.5196C51.8083 13.6376 52.6983 11.2332 52.6983 8.74865C52.6983 6.38241 51.9237 4.66701 50.3304 3.5034C48.9155 2.47072 46.8044 1.85933 44.0563 1.68645C43.4986 1.6512 42.9069 1.63358 42.2972 1.63358Z" fill="#E75313"/>
<path d="M13.7022 20.7842C7.06679 20.7842 1.66797 15.3857 1.66797 8.7503C1.66797 2.94529 5.71688 0.0020752 13.7022 0.0020752C21.6876 0.0020752 25.7365 2.94529 25.7365 8.7503C25.7365 15.3857 20.3381 20.7842 13.7022 20.7842ZM13.7022 1.63565C10.4191 1.63565 7.89093 2.14969 6.18853 3.16307C4.24611 4.31954 3.30197 6.14698 3.30197 8.7503C3.30197 14.4848 7.9673 19.1506 13.7022 19.1506C19.4372 19.1506 24.1029 14.4852 24.1029 8.7503C24.1029 6.14698 23.1588 4.31954 21.2164 3.16307C19.5135 2.14969 16.9853 1.63565 13.7022 1.63565Z" fill="#E75313"/>
</svg>
