<svg width="51" height="42" viewBox="0 0 51 42" fill="none" xmlns="http://www.w3.org/2000/svg">
<path d="M21.1583 41.3167C32.5676 41.3167 41.8167 32.0676 41.8167 20.6583C41.8167 9.24905 32.5676 0 21.1583 0C9.74905 0 0.5 9.24905 0.5 20.6583C0.5 32.0676 9.74905 41.3167 21.1583 41.3167Z" fill="#025162"/>
<path d="M35.9345 20.6583C35.9345 22.6297 35.5483 24.5091 34.8469 26.2272C32.6505 31.6277 27.3492 35.4342 21.1588 35.4342C12.9987 35.4342 6.38306 28.8186 6.38306 20.6585C6.38306 12.4984 12.9987 5.88281 21.1588 5.88281C27.3494 5.88281 32.6507 9.68917 34.8469 15.0898C35.5483 16.8078 35.9345 18.687 35.9345 20.6583Z" fill="url(#paint0_linear_1_482)"/>
<line x1="21.2611" y1="10.1481" x2="21.2611" y2="14.937" stroke="#025162" stroke-linecap="round" stroke-linejoin="round"/>
<line x1="21.2615" y1="25.5851" x2="21.2615" y2="30.374" stroke="#025162" stroke-linecap="round" stroke-linejoin="round"/>
<line x1="9.68335" y1="19.761" x2="14.4722" y2="19.761" stroke="#025162" stroke-linecap="round" stroke-linejoin="round"/>
<line x1="28.0145" y1="19.761" x2="32.8034" y2="19.761" stroke="#025162" stroke-linecap="round" stroke-linejoin="round"/>
<line x1="14.0074" y1="26.5417" x2="17.3937" y2="23.1554" stroke="#025162" stroke-linecap="round" stroke-linejoin="round"/>
<line x1="28.0062" y1="27.2488" x2="24.6199" y2="23.8625" stroke="#025162" stroke-linecap="round" stroke-linejoin="round"/>
<line x1="24.6204" y1="16.8936" x2="28.0066" y2="13.5073" stroke="#025162" stroke-linecap="round" stroke-linejoin="round"/>
<line x1="18.3581" y1="16.6359" x2="14.9718" y2="13.2496" stroke="#025162" stroke-linecap="round" stroke-linejoin="round"/>
<path d="M29.8417 41.3167C41.251 41.3167 50.5 32.0676 50.5 20.6583C50.5 9.24905 41.251 0 29.8417 0C18.4324 0 9.18335 9.24905 9.18335 20.6583C9.18335 32.0676 18.4324 41.3167 29.8417 41.3167Z" fill="#025162"/>
<path d="M44.6176 20.6583C44.6176 22.6297 44.2314 24.5091 43.53 26.2272C41.3336 31.6277 36.0323 35.4342 29.8419 35.4342C21.6818 35.4342 15.0662 28.8186 15.0662 20.6585C15.0662 12.4984 21.6818 5.88281 29.8419 5.88281C36.0325 5.88281 41.3338 9.68917 43.53 15.0898C44.2314 16.8078 44.6176 18.687 44.6176 20.6583Z" fill="url(#paint1_linear_1_482)"/>
<line x1="29.9442" y1="10.1481" x2="29.9442" y2="14.937" stroke="#025162" stroke-linecap="round" stroke-linejoin="round"/>
<line x1="29.9443" y1="25.5851" x2="29.9443" y2="30.374" stroke="#025162" stroke-linecap="round" stroke-linejoin="round"/>
<line x1="18.3665" y1="19.761" x2="23.1553" y2="19.761" stroke="#025162" stroke-linecap="round" stroke-linejoin="round"/>
<line x1="36.6984" y1="19.761" x2="41.4872" y2="19.761" stroke="#025162" stroke-linecap="round" stroke-linejoin="round"/>
<line x1="22.6902" y1="26.5418" x2="26.0764" y2="23.1555" stroke="#025162" stroke-linecap="round" stroke-linejoin="round"/>
<line x1="36.6889" y1="27.2489" x2="33.3026" y2="23.8626" stroke="#025162" stroke-linecap="round" stroke-linejoin="round"/>
<line x1="33.3031" y1="16.8936" x2="36.6894" y2="13.5073" stroke="#025162" stroke-linecap="round" stroke-linejoin="round"/>
<line x1="27.0408" y1="16.6359" x2="23.6546" y2="13.2496" stroke="#025162" stroke-linecap="round" stroke-linejoin="round"/>
<defs>
<linearGradient id="paint0_linear_1_482" x1="11.2027" y1="10.0186" x2="33.576" y2="31.2748" gradientUnits="userSpaceOnUse">
<stop stop-color="#D4E1F4"/>
<stop offset="0.1717" stop-color="#D4E1F4"/>
<stop offset="0.2" stop-color="#D4E1F4"/>
<stop offset="0.2001" stop-color="#DAE4F4"/>
<stop offset="0.2007" stop-color="#EBEBF4"/>
<stop offset="0.2014" stop-color="#F6F1F4"/>
<stop offset="0.2023" stop-color="#FDF4F4"/>
<stop offset="0.205" stop-color="#FFF5F4"/>
<stop offset="0.2522" stop-color="#FFF5F4"/>
<stop offset="0.26" stop-color="#D4E1F4"/>
<stop offset="0.3974" stop-color="#D4E1F4"/>
<stop offset="0.42" stop-color="#D4E1F4"/>
<stop offset="0.4201" stop-color="#DAE4F4"/>
<stop offset="0.4207" stop-color="#EBEBF4"/>
<stop offset="0.4214" stop-color="#F6F1F4"/>
<stop offset="0.4223" stop-color="#FDF4F4"/>
<stop offset="0.425" stop-color="#FFF5F4"/>
<stop offset="0.4894" stop-color="#FFF5F4"/>
<stop offset="0.5" stop-color="#F9F2F4"/>
<stop offset="0.5001" stop-color="#E8EBF4"/>
<stop offset="0.5003" stop-color="#DDE5F4"/>
<stop offset="0.5005" stop-color="#D6E2F4"/>
<stop offset="0.501" stop-color="#D4E1F4"/>
<stop offset="0.7062" stop-color="#D4E1F4"/>
<stop offset="0.74" stop-color="#D4E1F4"/>
<stop offset="0.741" stop-color="#FFF5F4"/>
<stop offset="0.8346" stop-color="#FFF5F4"/>
<stop offset="0.85" stop-color="#FFF5F4"/>
<stop offset="0.851" stop-color="#D4E1F4"/>
</linearGradient>
<linearGradient id="paint1_linear_1_482" x1="19.8858" y1="10.0186" x2="42.2591" y2="31.2748" gradientUnits="userSpaceOnUse">
<stop stop-color="#D4E1F4"/>
<stop offset="0.1717" stop-color="#D4E1F4"/>
<stop offset="0.2" stop-color="#D4E1F4"/>
<stop offset="0.2001" stop-color="#DAE4F4"/>
<stop offset="0.2007" stop-color="#EBEBF4"/>
<stop offset="0.2014" stop-color="#F6F1F4"/>
<stop offset="0.2023" stop-color="#FDF4F4"/>
<stop offset="0.205" stop-color="#FFF5F4"/>
<stop offset="0.2522" stop-color="#FFF5F4"/>
<stop offset="0.26" stop-color="#D4E1F4"/>
<stop offset="0.3974" stop-color="#D4E1F4"/>
<stop offset="0.42" stop-color="#D4E1F4"/>
<stop offset="0.4201" stop-color="#DAE4F4"/>
<stop offset="0.4207" stop-color="#EBEBF4"/>
<stop offset="0.4214" stop-color="#F6F1F4"/>
<stop offset="0.4223" stop-color="#FDF4F4"/>
<stop offset="0.425" stop-color="#FFF5F4"/>
<stop offset="0.4894" stop-color="#FFF5F4"/>
<stop offset="0.5" stop-color="#F9F2F4"/>
<stop offset="0.5001" stop-color="#E8EBF4"/>
<stop offset="0.5003" stop-color="#DDE5F4"/>
<stop offset="0.5005" stop-color="#D6E2F4"/>
<stop offset="0.501" stop-color="#D4E1F4"/>
<stop offset="0.7062" stop-color="#D4E1F4"/>
<stop offset="0.74" stop-color="#D4E1F4"/>
<stop offset="0.741" stop-color="#FFF5F4"/>
<stop offset="0.8346" stop-color="#FFF5F4"/>
<stop offset="0.85" stop-color="#FFF5F4"/>
<stop offset="0.851" stop-color="#D4E1F4"/>
</linearGradient>
</defs>
</svg>
