<svg width="56" height="30" viewBox="0 0 56 30" fill="none" xmlns="http://www.w3.org/2000/svg">
<path d="M48.5858 6.34644L41.6661 14.2433L48.5858 24.3737L54.0944 22.065C54.9462 21.7079 55.5005 20.8746 55.5005 19.951V10.6512C55.5005 9.71223 54.9278 8.86829 54.0553 8.52134L48.5858 6.34644Z" fill="#025162"/>
<path d="M7.56715 6.28577L1.90615 8.65842C1.05436 9.01536 0.5 9.84878 0.5 10.7723V20.0721C0.5 21.0111 1.07273 21.855 1.94525 22.202L7.56715 24.4374L16.3898 15.9241L7.56715 6.28577Z" fill="#025162"/>
<path d="M48.5861 6.09737C48.5861 5.55794 48.2364 5.08081 47.722 4.91851L46.4441 4.51528C43.7209 3.6274 43.0962 3.60033 40.3042 3.07605L12.2383 11.149L9.58057 28.3677C9.65114 28.3747 9.72257 28.3786 9.79496 28.3786H23.3327C23.5387 28.3786 23.738 28.3055 23.8951 28.1724L27.545 25.0824C27.8728 24.8048 28.3542 24.8079 28.6783 25.0897L32.2183 28.1652C32.3766 28.3028 32.5794 28.3786 32.7892 28.3786H33.2093L48.5861 15.477V6.09737Z" fill="#EADFD8"/>
<path d="M8.51463 4.91391C7.99679 5.07482 7.64319 5.55356 7.64319 6.09578V7.95242V26.2275C7.64319 27.3432 8.49261 28.2603 9.58007 28.3679L40.3036 3.07618C29.7535 1.09483 18.8385 1.70537 8.51463 4.91391Z" fill="#E75313"/>
<path d="M33.2073 28.3787H46.4328C47.6209 28.3787 48.584 27.4155 48.584 26.2274V15.4772L33.2073 28.3787Z" fill="#E75313"/>
<path d="M28.095 13.1248L40.3035 3.07472C36.2695 2.31713 32.1822 1.93979 28.095 1.94043V13.1248Z" fill="#E75313"/>
<path d="M46.4239 29.654H32.7785C32.1805 29.654 31.6025 29.438 31.1511 29.0458L28.0905 26.3868L24.9255 29.0663C24.4776 29.4453 23.9082 29.654 23.3219 29.654H9.78396C9.66183 29.654 9.53648 29.6476 9.41113 29.6353C7.47865 29.444 6.02148 27.8345 6.02148 25.8915V5.75978C6.02148 4.50519 6.82698 3.41183 8.02582 3.03921C18.521 -0.222396 29.7816 -0.873322 40.5904 1.15668C41.0865 1.24981 41.5137 1.32715 41.896 1.39643C43.6895 1.72125 44.5907 1.88441 46.9251 2.64522L48.1955 3.04608C49.3862 3.42171 50.1861 4.51292 50.1861 5.76149V25.8914C50.1863 27.9661 48.4985 29.654 46.4239 29.654ZM33.0553 26.4316H46.4239C46.7222 26.4316 46.9639 26.1898 46.9639 25.8916V6.91608C46.9639 6.39244 46.6244 5.92917 46.125 5.77159L45.9337 5.71122C43.8025 5.01647 43.0763 4.88489 41.3219 4.56727C40.9334 4.49692 40.4996 4.41829 39.9957 4.32366C30.0878 2.46294 19.7812 2.96746 10.1102 5.77728C9.59706 5.92637 9.24389 6.39652 9.24389 6.9309V25.8914C9.24389 26.1657 9.45656 26.4016 9.72821 26.4285C9.74841 26.4305 9.7672 26.4315 9.78396 26.4315H23.0504L26.4931 23.5168C27.4343 22.7199 28.7933 22.7284 29.7244 23.5375L33.0553 26.4316ZM47.2243 6.11854C47.2249 6.11875 47.2257 6.11897 47.2263 6.11918L47.2243 6.11854Z" fill="#025162"/>
<path d="M48.1962 3.04487L46.9258 2.644C44.5914 1.88319 43.6902 1.72003 41.8967 1.39521C41.5142 1.32593 41.0872 1.24859 40.5911 1.15547C36.4689 0.381232 32.2811 -0.00169746 28.095 0.00012857V3.22253C32.0818 3.22081 36.0704 3.58527 39.9964 4.32255C40.5001 4.41718 40.934 4.49581 41.3226 4.56616C43.077 4.88389 43.8032 5.01537 45.9344 5.71012L46.9646 6.03526V25.8903C46.9646 26.188 46.7224 26.4304 46.4246 26.4304H33.056L29.7251 23.5365C29.2546 23.1277 28.6749 22.924 28.0951 22.9246V26.3891L31.1516 29.0447C31.6031 29.4369 32.1811 29.6529 32.7791 29.6529H46.4245C48.4991 29.6529 50.1869 27.965 50.1869 25.8904V5.76028C50.1868 4.5117 49.3869 3.42049 48.1962 3.04487Z" fill="#025162"/>
</svg>
