<svg width="56" height="20" viewBox="0 0 56 20" fill="none" xmlns="http://www.w3.org/2000/svg">
<path d="M55.4995 7.33948V3.88786C55.5112 3.45957 55.259 3.06803 54.8643 2.90163C52.8919 2.16194 46.8041 0 42.736 0C37.824 0 32.912 2.09566 28 2.09566C23.088 2.09566 18.176 0 13.264 0C9.19596 0 3.10813 2.16205 1.13568 2.90163C0.740912 3.06792 0.488582 3.45957 0.500398 3.88786V7.33948C0.817395 7.62597 1.14986 7.89506 1.49608 8.14546C2.2014 8.88816 2.76116 9.75665 3.14605 10.7057L0.851232 13.7592C0.623501 14.0629 0.500398 14.4322 0.500398 14.8118V17.211C0.501579 18.1794 1.28628 18.9641 2.25468 18.9653H2.26413C2.92648 18.9641 3.53169 18.5899 3.82881 17.998L5.13741 15.3903C5.58363 16.2224 6.15983 16.9779 6.84431 17.6282C8.61814 19.1745 10.9121 19.991 13.2641 19.9135C15.5987 20.007 17.9161 19.4768 19.9777 18.3772C21.5408 17.4353 22.824 16.093 23.6949 14.4894C24.4924 12.8125 25.048 11.031 25.3449 9.19807C25.6862 7.80408 26.4639 6.28687 28 6.28687C29.5361 6.28687 30.3137 7.80408 30.6551 9.19807C30.952 11.031 31.5076 12.8125 32.305 14.4894C33.1759 16.0932 34.4591 17.4353 36.0222 18.3772C38.0838 19.4768 40.4013 20.007 42.7359 19.9135C45.0878 19.991 47.3817 19.1744 49.1556 17.6282C49.84 16.9778 50.4163 16.2224 50.8625 15.3903L52.1711 17.998C52.4683 18.5899 53.0735 18.9641 53.7357 18.9653H53.7452C54.7135 18.9641 55.4982 18.1794 55.4994 17.211V14.8118C55.4993 14.4323 55.3762 14.063 55.1486 13.7592L52.8538 10.7058C53.2387 9.75666 53.7984 8.88816 54.5038 8.14557C54.8501 7.89517 55.1824 7.62608 55.4995 7.33948Z" fill="#025162"/>
<path d="M5.13762 15.3904L3.82903 17.9982C3.5319 18.59 2.9267 18.9642 2.26434 18.9654H2.25489C1.2865 18.9642 0.501792 18.1795 0.50061 17.2111V14.812C0.500718 14.4324 0.623821 14.0631 0.851445 13.7594L3.14626 10.7059C3.19374 10.8008 3.23155 10.8956 3.26958 10.9904C3.8011 12.494 4.42499 13.9636 5.13762 15.3904Z" fill="#025162"/>
<path d="M17.1524 4.2103L7.831 13.5317C7.31184 12.5575 6.86497 11.5465 6.49394 10.5067C6.3327 10.0801 6.16201 9.66273 6.00088 9.24551C5.83965 8.85676 5.66896 8.47746 5.48881 8.11706C5.17805 7.51787 5.14517 6.81276 5.39858 6.18715C5.65209 5.56164 6.16663 5.07836 6.80686 4.86448C8.84258 4.25778 10.9438 3.89803 13.0654 3.79297C14.4371 3.81467 15.8046 3.95421 17.1524 4.2103Z" fill="#E75313"/>
<path d="M21.6185 5.43364L11.1402 15.9119C10.2538 15.7216 9.43093 15.307 8.75053 14.7077C8.38809 14.3627 8.07818 13.9666 7.83069 13.5318L17.1521 4.21045C18.1572 4.39059 19.1908 4.60876 20.2529 4.83628C20.3855 4.86474 20.5184 4.88365 20.6512 4.91212C21.0181 4.98656 21.3547 5.16799 21.6185 5.43364Z" fill="#E75313"/>
<path d="M22.2251 7.76633C22.2061 7.83272 22.1872 7.90856 22.1682 7.98439C22.0639 8.41107 21.969 8.83785 21.8742 9.25507C21.6848 10.3589 21.3433 11.4312 20.8595 12.4413C20.2825 13.4944 19.4388 14.3773 18.413 15.0015C16.7573 15.8315 14.9143 16.2171 13.0647 16.1205C12.4172 16.125 11.7713 16.055 11.1398 15.9119L21.6181 5.43359C22.2261 6.04503 22.4579 6.93619 22.2251 7.76633Z" fill="#E75313"/>
<path d="M50.5118 8.11716C50.3316 8.47745 50.1609 8.85686 49.9997 9.24561C49.8384 9.66283 49.6678 10.0801 49.5066 10.5068C48.8144 12.2896 48.2169 13.8353 47.2497 14.7077C46.0318 15.6888 44.4975 16.1913 42.9351 16.1206C41.3295 16.1774 39.7291 15.9064 38.2317 15.3241L48.7953 4.7605C48.9281 4.79842 49.0608 4.82688 49.1936 4.8648C49.8338 5.07857 50.3484 5.56185 50.6019 6.18747C50.8554 6.81287 50.8224 7.51797 50.5118 8.11716Z" fill="#E75313"/>
<path d="M48.7954 4.76025L38.2318 15.3238C38.0104 15.2297 37.795 15.1221 37.5869 15.0015C36.6223 14.4128 35.8178 13.5952 35.2448 12.6214L44.0161 3.84998C45.6308 4.02657 47.2289 4.331 48.7954 4.76025Z" fill="#E75313"/>
<path d="M44.0162 3.85004L35.2448 12.6214C35.2069 12.5645 35.1784 12.4981 35.1405 12.4413C34.6567 11.4312 34.3153 10.359 34.1259 9.2551C34.031 8.83788 33.9362 8.4111 33.8319 7.98443C33.8129 7.90859 33.794 7.83275 33.7749 7.76636C33.5947 7.17899 33.6605 6.54371 33.9572 6.00575C34.2539 5.46779 34.7562 5.07313 35.3491 4.9121C35.4819 4.88364 35.6146 4.86473 35.7474 4.83626C38.1013 4.24341 40.5099 3.89387 42.9352 3.79321C43.267 3.79311 43.6369 3.81212 44.0162 3.85004Z" fill="#E75313"/>
<path d="M55.4999 14.812V17.2111C55.4988 18.1795 54.7141 18.9642 53.7457 18.9654H53.7362C53.0739 18.9642 52.4686 18.5901 52.1716 17.9982L50.863 15.3904C51.5756 13.9636 52.1995 12.4942 52.7311 10.9905C52.769 10.8957 52.8069 10.8008 52.8544 10.7061L55.1492 13.7595C55.3767 14.063 55.4998 14.4324 55.4999 14.812Z" fill="#025162"/>
</svg>
