<svg width="72" height="20" viewBox="0 0 72 20" fill="none" xmlns="http://www.w3.org/2000/svg">
<path d="M17.153 15.747L12.8535 11.5161C13.9794 10.2929 14.6712 8.67509 14.6712 6.89489C14.6707 3.0867 11.534 0 7.66437 0C3.79477 0 0.658081 3.0867 0.658081 6.89489C0.658081 10.7031 3.79477 13.7898 7.66437 13.7898C9.3363 13.7898 10.8698 13.2115 12.0743 12.2501L16.3905 16.4976C16.6008 16.7047 16.9422 16.7047 17.1525 16.4976C17.3633 16.2904 17.3633 15.9541 17.153 15.747ZM7.66437 12.729C4.39027 12.729 1.7361 10.117 1.7361 6.89489C1.7361 3.67281 4.39027 1.06082 7.66437 1.06082C10.9385 1.06082 13.5926 3.67281 13.5926 6.89489C13.5926 10.117 10.9385 12.729 7.66437 12.729Z" fill="#414141"/>
<path d="M28.0217 15.21C27.2843 15.21 26.6193 15.0817 26.0267 14.825C25.4387 14.5683 24.9533 14.202 24.5707 13.726C24.1927 13.2453 23.9523 12.676 23.8497 12.018L25.5997 11.752C25.749 12.3493 26.0547 12.8113 26.5167 13.138C26.9833 13.4647 27.52 13.628 28.1267 13.628C28.486 13.628 28.8243 13.572 29.1417 13.46C29.459 13.348 29.7157 13.1847 29.9117 12.97C30.1123 12.7553 30.2127 12.4917 30.2127 12.179C30.2127 12.039 30.1893 11.9107 30.1427 11.794C30.096 11.6727 30.026 11.5653 29.9327 11.472C29.844 11.3787 29.7273 11.2947 29.5827 11.22C29.4427 11.1407 29.2793 11.073 29.0927 11.017L26.4887 10.247C26.2647 10.1817 26.022 10.0953 25.7607 9.988C25.504 9.876 25.259 9.72433 25.0257 9.533C24.797 9.337 24.608 9.08967 24.4587 8.791C24.314 8.48767 24.2417 8.11433 24.2417 7.671C24.2417 7.02233 24.405 6.47867 24.7317 6.04C25.063 5.59667 25.5063 5.26533 26.0617 5.046C26.6217 4.82667 27.2423 4.71933 27.9237 4.724C28.6143 4.72867 29.2303 4.84767 29.7717 5.081C30.313 5.30967 30.7657 5.64333 31.1297 6.082C31.4937 6.52067 31.7503 7.05033 31.8997 7.671L30.0867 7.986C30.012 7.63133 29.8673 7.33033 29.6527 7.083C29.4427 6.831 29.1837 6.63967 28.8757 6.509C28.5723 6.37833 28.248 6.30833 27.9027 6.299C27.5667 6.29433 27.254 6.34567 26.9647 6.453C26.68 6.55567 26.449 6.705 26.2717 6.901C26.099 7.097 26.0127 7.32567 26.0127 7.587C26.0127 7.83433 26.0873 8.03733 26.2367 8.196C26.386 8.35 26.5703 8.47367 26.7897 8.567C27.0137 8.65567 27.24 8.73033 27.4687 8.791L29.2747 9.295C29.522 9.36033 29.7997 9.449 30.1077 9.561C30.4157 9.673 30.712 9.82933 30.9967 10.03C31.2813 10.2307 31.5147 10.4943 31.6967 10.821C31.8833 11.1477 31.9767 11.563 31.9767 12.067C31.9767 12.5897 31.867 13.0493 31.6477 13.446C31.433 13.838 31.1413 14.1647 30.7727 14.426C30.404 14.6873 29.9817 14.8833 29.5057 15.014C29.0343 15.1447 28.5397 15.21 28.0217 15.21ZM36.9288 15.21C36.1635 15.21 35.4915 15.0443 34.9128 14.713C34.3342 14.3817 33.8815 13.922 33.5548 13.334C33.2328 12.746 33.0718 12.0693 33.0718 11.304C33.0718 10.478 33.2305 9.76167 33.5478 9.155C33.8652 8.54367 34.3062 8.07 34.8708 7.734C35.4355 7.398 36.0888 7.23 36.8308 7.23C37.6148 7.23 38.2798 7.41433 38.8258 7.783C39.3765 8.147 39.7848 8.66267 40.0508 9.33C40.3168 9.99733 40.4172 10.7837 40.3518 11.689H38.6788V11.073C38.6742 10.2517 38.5295 9.652 38.2448 9.274C37.9602 8.896 37.5122 8.707 36.9008 8.707C36.2102 8.707 35.6968 8.92167 35.3608 9.351C35.0248 9.77567 34.8568 10.3987 34.8568 11.22C34.8568 11.9853 35.0248 12.578 35.3608 12.998C35.6968 13.418 36.1868 13.628 36.8308 13.628C37.2462 13.628 37.6032 13.537 37.9018 13.355C38.2052 13.1683 38.4385 12.9 38.6018 12.55L40.2678 13.054C39.9785 13.7353 39.5305 14.265 38.9238 14.643C38.3218 15.021 37.6568 15.21 36.9288 15.21ZM34.3248 11.689V10.415H39.5258V11.689H34.3248ZM43.891 15.21C43.345 15.21 42.883 15.1073 42.505 14.902C42.127 14.692 41.84 14.4143 41.644 14.069C41.4527 13.7237 41.357 13.3433 41.357 12.928C41.357 12.564 41.4177 12.2373 41.539 11.948C41.6603 11.654 41.847 11.402 42.099 11.192C42.351 10.9773 42.6777 10.8023 43.079 10.667C43.3823 10.569 43.737 10.4803 44.143 10.401C44.5537 10.3217 44.997 10.2493 45.473 10.184C45.9537 10.114 46.4553 10.0393 46.978 9.96L46.376 10.303C46.3807 9.78033 46.264 9.39533 46.026 9.148C45.788 8.90067 45.3867 8.777 44.822 8.777C44.4813 8.777 44.1523 8.85633 43.835 9.015C43.5177 9.17367 43.296 9.44667 43.17 9.834L41.63 9.351C41.8167 8.71167 42.1713 8.19833 42.694 7.811C43.2213 7.42367 43.9307 7.23 44.822 7.23C45.494 7.23 46.0843 7.33967 46.593 7.559C47.1063 7.77833 47.4867 8.13767 47.734 8.637C47.8693 8.903 47.951 9.176 47.979 9.456C48.007 9.73133 48.021 10.0323 48.021 10.359V15H46.544V13.362L46.789 13.628C46.4483 14.174 46.0493 14.5753 45.592 14.832C45.1393 15.084 44.5723 15.21 43.891 15.21ZM44.227 13.866C44.6097 13.866 44.9363 13.7983 45.207 13.663C45.4777 13.5277 45.6923 13.362 45.851 13.166C46.0143 12.97 46.124 12.7857 46.18 12.613C46.2687 12.3983 46.3177 12.1533 46.327 11.878C46.341 11.598 46.348 11.3717 46.348 11.199L46.866 11.353C46.3573 11.4323 45.921 11.5023 45.557 11.563C45.193 11.6237 44.8803 11.682 44.619 11.738C44.3577 11.7893 44.1267 11.8477 43.926 11.913C43.73 11.983 43.5643 12.0647 43.429 12.158C43.2937 12.2513 43.1887 12.3587 43.114 12.48C43.044 12.6013 43.009 12.7437 43.009 12.907C43.009 13.0937 43.0557 13.2593 43.149 13.404C43.2423 13.544 43.3777 13.656 43.555 13.74C43.737 13.824 43.961 13.866 44.227 13.866ZM49.8434 15V7.44H51.3344V9.281L51.1524 9.043C51.2457 8.791 51.3694 8.56233 51.5234 8.357C51.6821 8.147 51.8711 7.97433 52.0904 7.839C52.2771 7.713 52.4824 7.615 52.7064 7.545C52.9351 7.47033 53.1684 7.426 53.4064 7.412C53.6444 7.39333 53.8754 7.40267 54.0994 7.44V9.015C53.8754 8.94967 53.6164 8.92867 53.3224 8.952C53.0331 8.97533 52.7717 9.057 52.5384 9.197C52.3051 9.323 52.1137 9.484 51.9644 9.68C51.8197 9.876 51.7124 10.1 51.6424 10.352C51.5724 10.5993 51.5374 10.8677 51.5374 11.157V15H49.8434ZM58.5815 15.21C57.8021 15.21 57.1371 15.0373 56.5865 14.692C56.0358 14.342 55.6135 13.866 55.3195 13.264C55.0301 12.662 54.8831 11.9807 54.8785 11.22C54.8831 10.4453 55.0348 9.75933 55.3335 9.162C55.6368 8.56 56.0661 8.08867 56.6215 7.748C57.1768 7.40267 57.8371 7.23 58.6025 7.23C59.4611 7.23 60.1868 7.447 60.7795 7.881C61.3768 8.31033 61.7665 8.89833 61.9485 9.645L60.2685 10.1C60.1378 9.694 59.9208 9.379 59.6175 9.155C59.3141 8.92633 58.9688 8.812 58.5815 8.812C58.1428 8.812 57.7811 8.917 57.4965 9.127C57.2118 9.33233 57.0018 9.617 56.8665 9.981C56.7311 10.345 56.6635 10.758 56.6635 11.22C56.6635 11.9387 56.8245 12.5197 57.1465 12.963C57.4685 13.4063 57.9468 13.628 58.5815 13.628C59.0295 13.628 59.3818 13.5253 59.6385 13.32C59.8998 13.1147 60.0958 12.8183 60.2265 12.431L61.9485 12.816C61.7151 13.586 61.3068 14.1787 60.7235 14.594C60.1401 15.0047 59.4261 15.21 58.5815 15.21ZM68.5802 15V11.36C68.5802 11.122 68.5639 10.8583 68.5312 10.569C68.4985 10.2797 68.4215 10.002 68.3002 9.736C68.1835 9.46533 68.0062 9.24367 67.7682 9.071C67.5349 8.89833 67.2175 8.812 66.8162 8.812C66.6015 8.812 66.3892 8.847 66.1792 8.917C65.9692 8.987 65.7779 9.10833 65.6052 9.281C65.4372 9.449 65.3019 9.68233 65.1992 9.981C65.0965 10.275 65.0452 10.653 65.0452 11.115L64.0442 10.688C64.0442 10.044 64.1679 9.46067 64.4152 8.938C64.6672 8.41533 65.0359 8 65.5212 7.692C66.0065 7.37933 66.6039 7.223 67.3132 7.223C67.8732 7.223 68.3352 7.31633 68.6992 7.503C69.0632 7.68967 69.3525 7.92767 69.5672 8.217C69.7819 8.50633 69.9405 8.81433 70.0432 9.141C70.1459 9.46767 70.2112 9.778 70.2392 10.072C70.2719 10.3613 70.2882 10.597 70.2882 10.779V15H68.5802ZM63.3372 15V4.92H64.8422V10.226H65.0452V15H63.3372Z" fill="#414141"/>
</svg>
