<svg width="159" height="47" viewBox="0 0 159 47" fill="none" xmlns="http://www.w3.org/2000/svg">
<path d="M2.59819 36V12.6163H7.01512V31.8754H17.0831V36H2.59819ZM19.8442 36V12.6163H35.1086V16.7409H24.2611V21.7424H33.1599V25.8671H24.2611V31.8754H35.1086V36H19.8442ZM39.0008 36V12.6163H43.4827L53.6481 28.2054V12.6163H58.13V36H53.6481L43.4827 20.4109V36H39.0008ZM71.4949 36.4872C69.7628 36.4872 68.1985 36.184 66.8019 35.5778C65.4162 34.9607 64.2741 34.0838 63.3756 32.9471C62.4878 31.7996 61.9249 30.4355 61.6867 28.855L66.2985 28.1729C66.6233 29.5153 67.2945 30.5492 68.3121 31.2745C69.3297 31.9999 70.4881 32.3625 71.7872 32.3625C72.5125 32.3625 73.2162 32.2489 73.8982 32.0215C74.5803 31.7942 75.1378 31.4586 75.5708 31.0147C76.0147 30.5709 76.2366 30.0242 76.2366 29.3746C76.2366 29.1364 76.1987 28.9091 76.1229 28.6926C76.058 28.4652 75.9443 28.2541 75.7819 28.0593C75.6195 27.8644 75.3868 27.6804 75.0837 27.5072C74.7914 27.3339 74.4179 27.177 73.9632 27.0362L67.8899 25.25C67.4352 25.1201 66.9048 24.936 66.2985 24.6979C65.7031 24.4597 65.1239 24.1187 64.561 23.6748C63.998 23.231 63.5271 22.6464 63.1482 21.9211C62.7801 21.1849 62.5961 20.2593 62.5961 19.1442C62.5961 17.5745 62.9912 16.27 63.7815 15.2307C64.5718 14.1914 65.6273 13.4174 66.9481 12.9086C68.2688 12.3998 69.7303 12.1508 71.3325 12.1616C72.9456 12.1832 74.3854 12.4593 75.652 12.9898C76.9186 13.5202 77.9796 14.2943 78.8348 15.3119C79.69 16.3187 80.3071 17.5528 80.686 19.0143L75.9118 19.8263C75.7386 19.0685 75.4193 18.4297 74.9537 17.9101C74.4882 17.3905 73.9307 16.9953 73.2812 16.7247C72.6424 16.454 71.9712 16.3079 71.2676 16.2862C70.5747 16.2646 69.9198 16.362 69.3027 16.5785C68.6964 16.7842 68.1985 17.0873 67.8087 17.4879C67.4298 17.8884 67.2404 18.3648 67.2404 18.9169C67.2404 19.4257 67.3973 19.8425 67.7113 20.1673C68.0252 20.4812 68.4204 20.7356 68.8967 20.9305C69.3731 21.1254 69.8602 21.2877 70.3582 21.4177L74.4179 22.5219C75.0241 22.6843 75.6953 22.9008 76.4315 23.1714C77.1676 23.4312 77.8713 23.7993 78.5425 24.2757C79.2245 24.7412 79.7821 25.3582 80.2151 26.1269C80.6589 26.8955 80.8809 27.8698 80.8809 29.0498C80.8809 30.3056 80.6156 31.4044 80.0852 32.3463C79.5655 33.2773 78.8619 34.0514 77.9741 34.6684C77.0864 35.2747 76.0796 35.7294 74.9537 36.0325C73.8387 36.3356 72.6857 36.4872 71.4949 36.4872ZM84.7749 36V12.6163H87.1619V33.7103H98.2692V36H84.7749ZM109.87 36.4872C107.543 36.4872 105.578 35.9729 103.976 34.9445C102.374 33.9052 101.161 32.4708 100.338 30.6412C99.5156 28.8117 99.1042 26.7006 99.1042 24.3081C99.1042 21.9156 99.5156 19.8046 100.338 17.975C101.161 16.1455 102.374 14.7165 103.976 13.688C105.578 12.6488 107.543 12.1291 109.87 12.1291C112.209 12.1291 114.174 12.6488 115.765 13.688C117.367 14.7165 118.58 16.1455 119.403 17.975C120.236 19.8046 120.653 21.9156 120.653 24.3081C120.653 26.7006 120.236 28.8117 119.403 30.6412C118.58 32.4708 117.367 33.9052 115.765 34.9445C114.174 35.9729 112.209 36.4872 109.87 36.4872ZM109.87 34.1975C111.7 34.1975 113.226 33.7807 114.45 32.9471C115.673 32.1135 116.588 30.9552 117.194 29.472C117.811 27.9781 118.12 26.2568 118.12 24.3081C118.12 22.3595 117.811 20.6436 117.194 19.1605C116.588 17.6773 115.673 16.519 114.45 15.6854C113.226 14.8518 111.7 14.4296 109.87 14.4188C108.041 14.4188 106.52 14.8356 105.307 15.6692C104.095 16.5027 103.18 17.6665 102.563 19.1605C101.957 20.6436 101.648 22.3595 101.637 24.3081C101.627 26.2568 101.924 27.9727 102.531 29.4558C103.148 30.9281 104.068 32.0865 105.291 32.9309C106.514 33.7645 108.041 34.1867 109.87 34.1975ZM128.865 36L120.811 12.6163H123.295L130.424 33.2881L137.602 12.6163H140.086L132.032 36H128.865ZM142.522 36V12.6163H157.137V14.9059H144.91V22.9928H155.189V25.2825H144.91V33.7103H157.137V36H142.522Z" fill="black"/>
</svg>
